<svg width="16" height="16" viewBox="0 0 16 16" fill="none" xmlns="http://www.w3.org/2000/svg">
<g clip-path="url(#clip0)">
<path d="M6.28711 10.5714H7.14425V11.4286H6.28711V10.5714Z" fill="#F30000"/>
<path d="M3.71582 6.71423H4.57296V7.57138H3.71582V6.71423Z" fill="#F30000"/>
<path d="M8.8584 10.5714H9.71554V11.4286H8.8584V10.5714Z" fill="#F30000"/>
<path d="M6.28711 6.71423H7.14425V7.57138H6.28711V6.71423Z" fill="#F30000"/>
<path d="M11.4302 6.71423H12.2873V7.57138H11.4302V6.71423Z" fill="#F30000"/>
<path d="M3.71582 8.64282H4.57296V9.49995H3.71582V8.64282Z" fill="#F30000"/>
<path d="M11.4302 8.64282H12.2873V9.49995H11.4302V8.64282Z" fill="#F30000"/>
<path d="M8.8584 8.64282H9.71554V9.49995H8.8584V8.64282Z" fill="#F30000"/>
<path d="M3.71582 10.5714H4.57296V11.4286H3.71582V10.5714Z" fill="#F30000"/>
<path d="M6.28711 8.64282H7.14425V9.49995H6.28711V8.64282Z" fill="#F30000"/>
<path d="M12.7975 3.28577H3.20522L2.13379 5.42862H13.869L12.7975 3.28577Z" fill="#F30000"/>
<path d="M3.71582 12.7142H6.71582V13.9999H3.71582V12.7142Z" fill="#F30000"/>
<path d="M11.4302 10.5714H12.2873V11.4286H11.4302V10.5714Z" fill="#F30000"/>
<path d="M9.28711 12.7142H12.2871V13.9999H9.28711V12.7142Z" fill="#F30000"/>
<path d="M5.64453 2H10.3588V2.85714H5.64453V2Z" fill="#F30000"/>
<path d="M13.573 14V5.85718H2.43018V14H3.28732V12.5C3.28732 12.3817 3.38327 12.2857 3.5016 12.2857H6.93018C7.04851 12.2857 7.14446 12.3817 7.14446 12.5V14H8.85875V12.5C8.85875 12.3817 8.95469 12.2857 9.07303 12.2857H12.5016C12.6199 12.2857 12.7159 12.3817 12.7159 12.5V14H13.573ZM11.0016 6.50003C11.0016 6.3817 11.0976 6.28575 11.2159 6.28575H12.5016C12.6199 6.28575 12.7159 6.3817 12.7159 6.50003V7.78575C12.7159 7.90409 12.6199 8.00003 12.5016 8.00003H11.2159C11.0976 8.00003 11.0016 7.90409 11.0016 7.78575V6.50003ZM11.0016 8.42861C11.0016 8.31027 11.0976 8.21432 11.2159 8.21432H12.5016C12.6199 8.21432 12.7159 8.31027 12.7159 8.42861V9.71432C12.7159 9.83266 12.6199 9.92861 12.5016 9.92861H11.2159C11.0976 9.92861 11.0016 9.83266 11.0016 9.71432V8.42861ZM5.0016 11.6429C5.0016 11.7612 4.90566 11.8572 4.78732 11.8572H3.5016C3.38327 11.8572 3.28732 11.7612 3.28732 11.6429V10.3572C3.28732 10.2388 3.38327 10.1429 3.5016 10.1429H4.78732C4.90566 10.1429 5.0016 10.2388 5.0016 10.3572V11.6429ZM5.0016 9.71432C5.0016 9.83266 4.90566 9.92861 4.78732 9.92861H3.5016C3.38327 9.92861 3.28732 9.83266 3.28732 9.71432V8.42861C3.28732 8.31027 3.38327 8.21432 3.5016 8.21432H4.78732C4.90566 8.21432 5.0016 8.31027 5.0016 8.42861V9.71432ZM5.0016 7.78575C5.0016 7.90409 4.90566 8.00003 4.78732 8.00003H3.5016C3.38327 8.00003 3.28732 7.90409 3.28732 7.78575V6.50003C3.28732 6.3817 3.38327 6.28575 3.5016 6.28575H4.78732C4.90566 6.28575 5.0016 6.3817 5.0016 6.50003V7.78575ZM7.57303 11.6429C7.57303 11.7612 7.47709 11.8572 7.35875 11.8572H6.07303C5.95469 11.8572 5.85875 11.7612 5.85875 11.6429V10.3572C5.85875 10.2388 5.95469 10.1429 6.07303 10.1429H7.35875C7.47709 10.1429 7.57303 10.2388 7.57303 10.3572V11.6429ZM7.57303 9.71432C7.57303 9.83266 7.47709 9.92861 7.35875 9.92861H6.07303C5.95469 9.92861 5.85875 9.83266 5.85875 9.71432V8.42861C5.85875 8.31027 5.95469 8.21432 6.07303 8.21432H7.35875C7.47709 8.21432 7.57303 8.31027 7.57303 8.42861V9.71432ZM7.57303 7.78575C7.57303 7.90409 7.47709 8.00003 7.35875 8.00003H6.07303C5.95469 8.00003 5.85875 7.90409 5.85875 7.78575V6.50003C5.85875 6.3817 5.95469 6.28575 6.07303 6.28575H7.35875C7.47709 6.28575 7.57303 6.3817 7.57303 6.50003V7.78575ZM10.1445 11.6429C10.1445 11.7612 10.0485 11.8572 9.93018 11.8572H8.64446C8.52612 11.8572 8.43018 11.7612 8.43018 11.6429V10.3572C8.43018 10.2388 8.52612 10.1429 8.64446 10.1429H9.93018C10.0485 10.1429 10.1445 10.2388 10.1445 10.3572V11.6429ZM10.1445 9.71432C10.1445 9.83266 10.0485 9.92861 9.93018 9.92861H8.64446C8.52612 9.92861 8.43018 9.83266 8.43018 9.71432V8.42861C8.43018 8.31027 8.52612 8.21432 8.64446 8.21432H9.93018C10.0485 8.21432 10.1445 8.31027 10.1445 8.42861V9.71432ZM10.1445 7.78575C10.1445 7.90409 10.0485 8.00003 9.93018 8.00003H8.64446C8.52612 8.00003 8.43018 7.90409 8.43018 7.78575V6.50003C8.43018 6.3817 8.52612 6.28575 8.64446 6.28575H9.93018C10.0485 6.28575 10.1445 6.3817 10.1445 6.50003V7.78575ZM12.5016 11.8572H11.2159C11.0976 11.8572 11.0016 11.7612 11.0016 11.6429V10.3572C11.0016 10.2388 11.0976 10.1429 11.2159 10.1429H12.5016C12.6199 10.1429 12.7159 10.2388 12.7159 10.3572V11.6429C12.7159 11.7612 12.6199 11.8572 12.5016 11.8572Z" fill="#F30000"/>
<path d="M8.8584 6.71423H9.71554V7.57138H8.8584V6.71423Z" fill="#F30000"/>
</g>
<defs>
<clipPath id="clip0">
<rect width="12" height="12" fill="white" transform="translate(2 2)"/>
</clipPath>
</defs>
</svg>
