<svg width="16" height="16" viewBox="0 0 16 16" fill="none" xmlns="http://www.w3.org/2000/svg">
<path d="M7.5 4.5H15V5H7.5V4.5Z" fill="#F88216"/>
<path d="M5.5 3H6.5V4H5.5V3Z" fill="#F88216"/>
<path d="M3 9H4V10H3V9Z" fill="#F88216"/>
<path d="M3 6H4V7H3V6Z" fill="#F88216"/>
<path d="M3 12H4V13H3V12Z" fill="#F88216"/>
<path d="M10.25 11.5H12.25V14H10.25V11.5Z" fill="#F88216"/>
<path d="M9.5 6.5H10.5V7.5H9.5V6.5Z" fill="#F88216"/>
<path d="M14.5 14V5.5H8V14H9.75V11.25C9.75 11.1119 9.86194 11 10 11H12.5C12.6381 11 12.75 11.1119 12.75 11.25V14H14.5ZM11.5 6.25C11.5 6.11194 11.6119 6 11.75 6H13.25C13.3881 6 13.5 6.11194 13.5 6.25V7.75C13.5 7.88806 13.3881 8 13.25 8H11.75C11.6119 8 11.5 7.88806 11.5 7.75V6.25ZM11 10.25C11 10.3881 10.8881 10.5 10.75 10.5H9.25C9.11194 10.5 9 10.3881 9 10.25V8.75C9 8.61194 9.11194 8.5 9.25 8.5H10.75C10.8881 8.5 11 8.61194 11 8.75V10.25ZM11 7.75C11 7.88806 10.8881 8 10.75 8H9.25C9.11194 8 9 7.88806 9 7.75V6.25C9 6.11194 9.11194 6 9.25 6H10.75C10.8881 6 11 6.11194 11 6.25V7.75ZM11.75 10.5C11.6119 10.5 11.5 10.3881 11.5 10.25V8.75C11.5 8.61194 11.6119 8.5 11.75 8.5H13.25C13.3881 8.5 13.5 8.61194 13.5 8.75V10.25C13.5 10.3881 13.3881 10.5 13.25 10.5H11.75Z" fill="#F88216"/>
<path d="M9.5 9H10.5V10H9.5V9Z" fill="#F88216"/>
<path d="M12 9H13V10H12V9Z" fill="#F88216"/>
<path d="M12 6.5H13V7.5H12V6.5Z" fill="#F88216"/>
<path d="M1 1H8.5V1.5H1V1Z" fill="#F88216"/>
<path d="M5.5 9H6.5V10H5.5V9Z" fill="#F88216"/>
<path d="M5.5 12H6.5V13H5.5V12Z" fill="#F88216"/>
<path d="M6.75 4.5H5.25C5.11194 4.5 5 4.38806 5 4.25V2.75C5 2.61194 5.11194 2.5 5.25 2.5H6.75C6.88806 2.5 7 2.61194 7 2.75V4.25C7 4.11194 7.11194 4 7.25 4H8V2H1.5V14H7.5V5.5H7.25C7.11194 5.5 7 5.38806 7 5.25V4.25C7 4.38806 6.88806 4.5 6.75 4.5ZM4.5 13.25C4.5 13.3881 4.38806 13.5 4.25 13.5H2.75C2.61194 13.5 2.5 13.3881 2.5 13.25V11.75C2.5 11.6119 2.61194 11.5 2.75 11.5H4.25C4.38806 11.5 4.5 11.6119 4.5 11.75V13.25ZM4.5 10.25C4.5 10.3881 4.38806 10.5 4.25 10.5H2.75C2.61194 10.5 2.5 10.3881 2.5 10.25V8.75C2.5 8.61194 2.61194 8.5 2.75 8.5H4.25C4.38806 8.5 4.5 8.61194 4.5 8.75V10.25ZM4.5 7.25C4.5 7.38806 4.38806 7.5 4.25 7.5H2.75C2.61194 7.5 2.5 7.38806 2.5 7.25V5.75C2.5 5.61194 2.61194 5.5 2.75 5.5H4.25C4.38806 5.5 4.5 5.61194 4.5 5.75V7.25ZM4.5 4.25C4.5 4.38806 4.38806 4.5 4.25 4.5H2.75C2.61194 4.5 2.5 4.38806 2.5 4.25V2.75C2.5 2.61194 2.61194 2.5 2.75 2.5H4.25C4.38806 2.5 4.5 2.61194 4.5 2.75V4.25ZM7 13.25C7 13.3881 6.88806 13.5 6.75 13.5H5.25C5.11194 13.5 5 13.3881 5 13.25V11.75C5 11.6119 5.11194 11.5 5.25 11.5H6.75C6.88806 11.5 7 11.6119 7 11.75V13.25ZM7 10.25C7 10.3881 6.88806 10.5 6.75 10.5H5.25C5.11194 10.5 5 10.3881 5 10.25V8.75C5 8.61194 5.11194 8.5 5.25 8.5H6.75C6.88806 8.5 7 8.61194 7 8.75V10.25ZM7 7.25C7 7.38806 6.88806 7.5 6.75 7.5H5.25C5.11194 7.5 5 7.38806 5 7.25V5.75C5 5.61194 5.11194 5.5 5.25 5.5H6.75C6.88806 5.5 7 5.61194 7 5.75V7.25Z" fill="#F88216"/>
<path d="M5.5 6H6.5V7H5.5V6Z" fill="#F88216"/>
<path d="M1 14.5H15V15H1V14.5Z" fill="#F88216"/>
<path d="M3 3H4V4H3V3Z" fill="#F88216"/>
</svg>
