<svg width="16" height="16" viewBox="0 0 16 16" fill="none" xmlns="http://www.w3.org/2000/svg">
<g clip-path="url(#clip0)">
<path d="M11.4287 9.2854H12.2858V10.1425H11.4287V9.2854Z" fill="#0057FF"/>
<path d="M3.71484 4.99988H4.57195V5.85699H3.71484V4.99988Z" fill="#0057FF"/>
<path d="M2.78827 2L2.10254 3.71421H13.8976L13.212 2H2.78827Z" fill="#0057FF"/>
<path d="M3.71484 7.1427H4.57195V7.99981H3.71484V7.1427Z" fill="#0057FF"/>
<path d="M6.28613 9.2854H7.14324V10.1425H6.28613V9.2854Z" fill="#0057FF"/>
<path d="M6.28613 7.1427H7.14324V7.99981H6.28613V7.1427Z" fill="#0057FF"/>
<path d="M10.2622 13.9995C10.1851 13.8698 10.144 13.7218 10.1431 13.5709V13.9995H10.2622Z" fill="#0057FF"/>
<path d="M6.28613 4.99988H7.14324V5.85699H6.28613V4.99988Z" fill="#0057FF"/>
<path d="M13.7994 13.0749C13.961 12.9735 14.0359 12.7773 13.9829 12.594C13.93 12.4108 13.7619 12.2848 13.5712 12.2853C13.4976 12.2859 13.4254 12.3059 13.3618 12.3431C13.2625 12.3995 13.1363 12.3679 13.0752 12.2713C12.9541 12.0784 12.7024 12.0155 12.5047 12.1288C12.4053 12.1852 12.2792 12.1536 12.2181 12.0571C12.1312 11.9176 11.9717 11.8406 11.8083 11.8595C11.6451 11.8784 11.5073 11.9897 11.4546 12.1454C11.4248 12.2362 11.3372 12.2952 11.2418 12.2889C11.2356 12.2889 11.2123 12.2861 11.206 12.2853C10.9723 12.289 10.7849 12.48 10.7856 12.7138C10.7862 12.7875 10.8062 12.8597 10.8435 12.9232C10.8999 13.0226 10.8683 13.1488 10.7717 13.2099C10.6171 13.3068 10.5411 13.4912 10.5824 13.669C10.6239 13.8467 10.7735 13.9786 10.955 13.9973C11.1365 14.0159 11.3099 13.9174 11.3867 13.7518C11.4192 13.6824 11.4864 13.6356 11.5629 13.6292C11.6394 13.6228 11.7133 13.6579 11.757 13.721C11.8621 13.8751 12.0294 13.9754 12.2148 13.9956C12.4003 14.0158 12.5853 13.9538 12.7212 13.8259C12.7609 13.7891 12.813 13.7687 12.8671 13.7687H12.8801C12.9385 13.7722 12.9927 13.7996 13.0302 13.8445C13.1449 13.9839 13.3349 14.036 13.5045 13.9745C13.6742 13.9131 13.7867 13.7514 13.7855 13.5709C13.7849 13.4973 13.7649 13.4251 13.7276 13.3616C13.6713 13.2622 13.7028 13.136 13.7994 13.0749V13.0749Z" fill="#0057FF"/>
<path d="M5.85746 13.9995V13.5709C5.85662 13.7218 5.8155 13.8698 5.73828 13.9995H5.85746Z" fill="#0057FF"/>
<path d="M11.4287 4.99988H12.2858V5.85699H11.4287V4.99988Z" fill="#0057FF"/>
<path d="M11.4287 7.1427H12.2858V7.99981H11.4287V7.1427Z" fill="#0057FF"/>
<path d="M3.71484 9.2854H4.57195V10.1425H3.71484V9.2854Z" fill="#0057FF"/>
<path d="M8.85742 7.1427H9.71451V7.99981H8.85742V7.1427Z" fill="#0057FF"/>
<path d="M7.78608 13.9994V11.4281H6.28613V13.9994H7.78608ZM7.14324 12.4995H7.5718V12.928H7.14324V12.4995Z" fill="#0057FF"/>
<path d="M11.1145 11.8624C11.2458 11.6291 11.479 11.471 11.7444 11.4354C12.0097 11.3999 12.2763 11.4909 12.4644 11.6814C12.7677 11.5884 13.0976 11.6708 13.3215 11.8957C13.4024 11.8698 13.4867 11.8567 13.5716 11.8567V4.1427H2.4292V11.8567C2.51426 11.8567 2.5987 11.8697 2.67968 11.8957C2.90358 11.6708 3.23347 11.5884 3.53678 11.6814C3.7249 11.4909 3.9916 11.3999 4.25693 11.4354C4.52227 11.471 4.75548 11.6291 4.88679 11.8624C5.31806 11.914 5.64282 12.2795 5.64335 12.7138C5.64345 12.7988 5.63027 12.8833 5.60432 12.9642C5.7667 13.1243 5.85794 13.3429 5.85762 13.5709V11.2138C5.85762 11.0955 5.95357 10.9995 6.0719 10.9995H9.92888C10.0472 10.9995 10.1432 11.0955 10.1432 11.2138V13.5709C10.1428 13.3429 10.2341 13.1243 10.3965 12.9642C10.3705 12.8833 10.3574 12.7988 10.3574 12.7138C10.358 12.2792 10.683 11.9138 11.1145 11.8624V11.8624ZM11.0003 4.78553C11.0003 4.6672 11.0962 4.57125 11.2145 4.57125H12.5002C12.6185 4.57125 12.7145 4.6672 12.7145 4.78553V6.07119C12.7145 6.18952 12.6185 6.28547 12.5002 6.28547H11.2145C11.0962 6.28547 11.0003 6.18952 11.0003 6.07119V4.78553ZM11.0003 6.9283C11.0003 6.80996 11.0962 6.71402 11.2145 6.71402H12.5002C12.6185 6.71402 12.7145 6.80996 12.7145 6.9283V8.21395C12.7145 8.33229 12.6185 8.42823 12.5002 8.42823H11.2145C11.0962 8.42823 11.0003 8.33229 11.0003 8.21395V6.9283ZM11.0003 9.07106C11.0003 8.95273 11.0962 8.85678 11.2145 8.85678H12.5002C12.6185 8.85678 12.7145 8.95273 12.7145 9.07106V10.3567C12.7145 10.4751 12.6185 10.571 12.5002 10.571H11.2145C11.0962 10.571 11.0003 10.4751 11.0003 10.3567V9.07106ZM5.00052 10.3567C5.00052 10.4751 4.90457 10.571 4.78624 10.571H3.50058C3.38225 10.571 3.28631 10.4751 3.28631 10.3567V9.07106C3.28631 8.95273 3.38225 8.85678 3.50058 8.85678H4.78624C4.90457 8.85678 5.00052 8.95273 5.00052 9.07106V10.3567ZM5.00052 8.21395C5.00052 8.33229 4.90457 8.42823 4.78624 8.42823H3.50058C3.38225 8.42823 3.28631 8.33229 3.28631 8.21395V6.9283C3.28631 6.80996 3.38225 6.71402 3.50058 6.71402H4.78624C4.90457 6.71402 5.00052 6.80996 5.00052 6.9283V8.21395ZM5.00052 6.07119C5.00052 6.18952 4.90457 6.28547 4.78624 6.28547H3.50058C3.38225 6.28547 3.28631 6.18952 3.28631 6.07119V4.78553C3.28631 4.6672 3.38225 4.57125 3.50058 4.57125H4.78624C4.90457 4.57125 5.00052 4.6672 5.00052 4.78553V6.07119ZM7.57184 10.3567C7.57184 10.4751 7.47589 10.571 7.35756 10.571H6.0719C5.95357 10.571 5.85762 10.4751 5.85762 10.3567V9.07106C5.85762 8.95273 5.95357 8.85678 6.0719 8.85678H7.35756C7.47589 8.85678 7.57184 8.95273 7.57184 9.07106V10.3567ZM7.57184 8.21395C7.57184 8.33229 7.47589 8.42823 7.35756 8.42823H6.0719C5.95357 8.42823 5.85762 8.33229 5.85762 8.21395V6.9283C5.85762 6.80996 5.95357 6.71402 6.0719 6.71402H7.35756C7.47589 6.71402 7.57184 6.80996 7.57184 6.9283V8.21395ZM7.57184 6.07119C7.57184 6.18952 7.47589 6.28547 7.35756 6.28547H6.0719C5.95357 6.28547 5.85762 6.18952 5.85762 6.07119V4.78553C5.85762 4.6672 5.95357 4.57125 6.0719 4.57125H7.35756C7.47589 4.57125 7.57184 4.6672 7.57184 4.78553V6.07119ZM10.1432 10.3567C10.1432 10.4751 10.0472 10.571 9.92888 10.571H8.64322C8.52489 10.571 8.42894 10.4751 8.42894 10.3567V9.07106C8.42894 8.95273 8.52489 8.85678 8.64322 8.85678H9.92888C10.0472 8.85678 10.1432 8.95273 10.1432 9.07106V10.3567ZM10.1432 8.21395C10.1432 8.33229 10.0472 8.42823 9.92888 8.42823H8.64322C8.52489 8.42823 8.42894 8.33229 8.42894 8.21395V6.9283C8.42894 6.80996 8.52489 6.71402 8.64322 6.71402H9.92888C10.0472 6.71402 10.1432 6.80996 10.1432 6.9283V8.21395ZM10.1432 6.07119C10.1432 6.18952 10.0472 6.28547 9.92888 6.28547H8.64322C8.52489 6.28547 8.42894 6.18952 8.42894 6.07119V4.78553C8.42894 4.6672 8.52489 4.57125 8.64322 4.57125H9.92888C10.0472 4.57125 10.1432 4.6672 10.1432 4.78553V6.07119Z" fill="#0057FF"/>
<path d="M8.85742 4.99988H9.71451V5.85699H8.85742V4.99988Z" fill="#0057FF"/>
<path d="M2.21476 13.5709C2.21382 13.751 2.32619 13.9123 2.49547 13.9737C2.66476 14.0352 2.85434 13.9837 2.96922 13.8449C3.00668 13.8 3.06088 13.7726 3.11926 13.7691C3.17775 13.7655 3.23519 13.786 3.27819 13.8259C3.4141 13.9537 3.59908 14.0158 3.78458 13.9956C3.96998 13.9754 4.13739 13.8751 4.24243 13.7209C4.28251 13.663 4.34842 13.6284 4.41883 13.6286H4.43641C4.51289 13.6349 4.58017 13.6817 4.61271 13.7513C4.68208 13.903 4.83368 14 5.00035 13.9995C5.19109 13.9999 5.35912 13.8739 5.41206 13.6907C5.465 13.5074 5.39019 13.3112 5.22854 13.2098C5.13197 13.1487 5.10048 13.0226 5.15677 12.9232C5.19402 12.8597 5.214 12.7875 5.21463 12.7138C5.21463 12.4771 5.02274 12.2853 4.78608 12.2853C4.77708 12.2874 4.76777 12.2887 4.75845 12.2889C4.66303 12.2954 4.57536 12.2363 4.54564 12.1454C4.49291 11.9897 4.35512 11.8784 4.1919 11.8595C4.02857 11.8406 3.86912 11.9176 3.78218 12.0571C3.72108 12.1536 3.5949 12.1852 3.4955 12.1288C3.29796 12.0152 3.04592 12.0781 2.92507 12.2713C2.86397 12.3679 2.73779 12.3995 2.63839 12.3431C2.57488 12.3059 2.50269 12.2859 2.42903 12.2853C2.2383 12.2848 2.07027 12.4108 2.01733 12.594C1.96439 12.7773 2.03919 12.9735 2.20084 13.0749C2.29741 13.136 2.32901 13.2622 2.27262 13.3615C2.23537 13.4251 2.21539 13.4972 2.21476 13.5709V13.5709Z" fill="#0057FF"/>
<path d="M8.85742 9.2854H9.71451V10.1425H8.85742V9.2854Z" fill="#0057FF"/>
<path d="M9.71429 13.9994V11.4281H8.21436V13.9994H9.71429ZM8.42863 12.4995H8.85718V12.928H8.42863V12.4995Z" fill="#0057FF"/>
</g>
<defs>
<clipPath id="clip0">
<rect width="12" height="12" fill="white" transform="translate(2 2)"/>
</clipPath>
</defs>
</svg>
