<svg width="16" height="16" viewBox="0 0 16 16" fill="none" xmlns="http://www.w3.org/2000/svg">
<path d="M4.57129 4.99207H5.42843V5.84921H4.57129V4.99207Z" fill="#6C00C1"/>
<path d="M12.5 4.99207H13.3571V5.84921H12.5V4.99207Z" fill="#6C00C1"/>
<path d="M12.5 9.49207H13.3571V10.3492H12.5V9.49207Z" fill="#6C00C1"/>
<path d="M4.57129 7.34924H5.42843V8.2064H4.57129V7.34924Z" fill="#6C00C1"/>
<path d="M12.5 11.8492H13.3571V12.7064H12.5V11.8492Z" fill="#6C00C1"/>
<path d="M12.5 7.34924H13.3571V8.2064H12.5V7.34924Z" fill="#6C00C1"/>
<path d="M2.64307 9.49207H3.50021V10.3492H2.64307V9.49207Z" fill="#6C00C1"/>
<path d="M4.57129 9.49207H5.42843V10.3492H4.57129V9.49207Z" fill="#6C00C1"/>
<path d="M2.64307 11.8492H3.50021V12.7064H2.64307V11.8492Z" fill="#6C00C1"/>
<path d="M4.57129 11.8492H5.42843V12.7064H4.57129V11.8492Z" fill="#6C00C1"/>
<path d="M2.64307 7.34924H3.50021V8.2064H2.64307V7.34924Z" fill="#6C00C1"/>
<path d="M2.64307 4.99207H3.50021V5.84921H2.64307V4.99207Z" fill="#6C00C1"/>
<path d="M14 13.992V3.7063H2V13.992H6.07143V4.77773C6.07143 4.65939 6.16738 4.56344 6.28571 4.56344H9.71429C9.83262 4.56344 9.92857 4.65939 9.92857 4.77773V13.992H14ZM3.92857 12.9206C3.92857 13.0389 3.83262 13.1349 3.71429 13.1349H2.42857C2.31023 13.1349 2.21429 13.0389 2.21429 12.9206V11.6349C2.21429 11.5165 2.31023 11.4206 2.42857 11.4206H3.71429C3.83262 11.4206 3.92857 11.5165 3.92857 11.6349V12.9206ZM3.92857 10.5634C3.92857 10.6818 3.83262 10.7777 3.71429 10.7777H2.42857C2.31023 10.7777 2.21429 10.6818 2.21429 10.5634V9.27773C2.21429 9.15939 2.31023 9.06344 2.42857 9.06344H3.71429C3.83262 9.06344 3.92857 9.15939 3.92857 9.27773V10.5634ZM3.92857 8.42058C3.92857 8.53892 3.83262 8.63487 3.71429 8.63487H2.42857C2.31023 8.63487 2.21429 8.53892 2.21429 8.42058V7.13487C2.21429 7.01653 2.31023 6.92058 2.42857 6.92058H3.71429C3.83262 6.92058 3.92857 7.01653 3.92857 7.13487V8.42058ZM3.92857 6.06344C3.92857 6.18178 3.83262 6.27773 3.71429 6.27773H2.42857C2.31023 6.27773 2.21429 6.18178 2.21429 6.06344V4.77773C2.21429 4.65939 2.31023 4.56344 2.42857 4.56344H3.71429C3.83262 4.56344 3.92857 4.65939 3.92857 4.77773V6.06344ZM5.85714 12.9206C5.85714 13.0389 5.7612 13.1349 5.64286 13.1349H4.35714C4.2388 13.1349 4.14286 13.0389 4.14286 12.9206V11.6349C4.14286 11.5165 4.2388 11.4206 4.35714 11.4206H5.64286C5.7612 11.4206 5.85714 11.5165 5.85714 11.6349V12.9206ZM5.85714 10.5634C5.85714 10.6818 5.7612 10.7777 5.64286 10.7777H4.35714C4.2388 10.7777 4.14286 10.6818 4.14286 10.5634V9.27773C4.14286 9.15939 4.2388 9.06344 4.35714 9.06344H5.64286C5.7612 9.06344 5.85714 9.15939 5.85714 9.27773V10.5634ZM5.85714 8.42058C5.85714 8.53892 5.7612 8.63487 5.64286 8.63487H4.35714C4.2388 8.63487 4.14286 8.53892 4.14286 8.42058V7.13487C4.14286 7.01653 4.2388 6.92058 4.35714 6.92058H5.64286C5.7612 6.92058 5.85714 7.01653 5.85714 7.13487V8.42058ZM5.85714 6.06344C5.85714 6.18178 5.7612 6.27773 5.64286 6.27773H4.35714C4.2388 6.27773 4.14286 6.18178 4.14286 6.06344V4.77773C4.14286 4.65939 4.2388 4.56344 4.35714 4.56344H5.64286C5.7612 4.56344 5.85714 4.65939 5.85714 4.77773V6.06344ZM12.0714 4.77773C12.0714 4.65939 12.1674 4.56344 12.2857 4.56344H13.5714C13.6898 4.56344 13.7857 4.65939 13.7857 4.77773V6.06344C13.7857 6.18178 13.6898 6.27773 13.5714 6.27773H12.2857C12.1674 6.27773 12.0714 6.18178 12.0714 6.06344V4.77773ZM12.0714 7.13487C12.0714 7.01653 12.1674 6.92058 12.2857 6.92058H13.5714C13.6898 6.92058 13.7857 7.01653 13.7857 7.13487V8.42058C13.7857 8.53892 13.6898 8.63487 13.5714 8.63487H12.2857C12.1674 8.63487 12.0714 8.53892 12.0714 8.42058V7.13487ZM12.0714 9.27773C12.0714 9.15939 12.1674 9.06344 12.2857 9.06344H13.5714C13.6898 9.06344 13.7857 9.15939 13.7857 9.27773V10.5634C13.7857 10.6818 13.6898 10.7777 13.5714 10.7777H12.2857C12.1674 10.7777 12.0714 10.6818 12.0714 10.5634V9.27773ZM12.0714 11.6349C12.0714 11.5165 12.1674 11.4206 12.2857 11.4206H13.5714C13.6898 11.4206 13.7857 11.5165 13.7857 11.6349V12.9206C13.7857 13.0389 13.6898 13.1349 13.5714 13.1349H12.2857C12.1674 13.1349 12.0714 13.0389 12.0714 12.9206V11.6349ZM10.1429 4.77773C10.1429 4.65939 10.2388 4.56344 10.3571 4.56344H11.6429C11.7612 4.56344 11.8571 4.65939 11.8571 4.77773V6.06344C11.8571 6.18178 11.7612 6.27773 11.6429 6.27773H10.3571C10.2388 6.27773 10.1429 6.18178 10.1429 6.06344V4.77773ZM10.1429 7.13487C10.1429 7.01653 10.2388 6.92058 10.3571 6.92058H11.6429C11.7612 6.92058 11.8571 7.01653 11.8571 7.13487V8.42058C11.8571 8.53892 11.7612 8.63487 11.6429 8.63487H10.3571C10.2388 8.63487 10.1429 8.53892 10.1429 8.42058V7.13487ZM10.1429 9.27773C10.1429 9.15939 10.2388 9.06344 10.3571 9.06344H11.6429C11.7612 9.06344 11.8571 9.15939 11.8571 9.27773V10.5634C11.8571 10.6818 11.7612 10.7777 11.6429 10.7777H10.3571C10.2388 10.7777 10.1429 10.6818 10.1429 10.5634V9.27773ZM10.1429 11.6349C10.1429 11.5165 10.2388 11.4206 10.3571 11.4206H11.6429C11.7612 11.4206 11.8571 11.5165 11.8571 11.6349V12.9206C11.8571 13.0389 11.7612 13.1349 11.6429 13.1349H10.3571C10.2388 13.1349 10.1429 13.0389 10.1429 12.9206V11.6349Z" fill="#6C00C1"/>
<path d="M10.5713 11.8492H11.4284V12.7064H10.5713V11.8492Z" fill="#6C00C1"/>
<path d="M7.14307 5.63489H8.85735V13.992H7.14307V5.63489Z" fill="#6C00C1"/>
<path d="M10.5713 9.49207H11.4284V10.3492H10.5713V9.49207Z" fill="#6C00C1"/>
<path d="M10.5713 7.34924H11.4284V8.2064H10.5713V7.34924Z" fill="#6C00C1"/>
<path d="M10.5713 4.99207H11.4284V5.84921H10.5713V4.99207Z" fill="#6C00C1"/>
<path d="M6.5 13.9921H6.71429V5.42064C6.71429 5.3023 6.81023 5.20635 6.92857 5.20635H9.07143C9.18977 5.20635 9.28571 5.3023 9.28571 5.42064V13.9921H9.5V4.99207H6.5V13.9921Z" fill="#6C00C1"/>
<path d="M3.36865 3.27776H12.6317L8.00017 2L3.36865 3.27776Z" fill="#6C00C1"/>
</svg>
