<svg width="16" height="16" viewBox="0 0 16 16" fill="none" xmlns="http://www.w3.org/2000/svg">
<g clip-path="url(#clip0)">
<path d="M9.78564 10.7167H10.7789V11.7099H9.78564V10.7167Z" fill="#E80061"/>
<path d="M14.7519 12.7031V7.24036H8.2959V12.7031H14.7519ZM11.7722 7.98528C11.7722 7.84815 11.8834 7.73697 12.0205 7.73697H13.5103C13.6475 7.73697 13.7586 7.84815 13.7586 7.98528V9.47511C13.7586 9.61224 13.6475 9.72342 13.5103 9.72342H12.0205C11.8834 9.72342 11.7722 9.61224 11.7722 9.47511V7.98528ZM11.7722 10.4683C11.7722 10.3312 11.8834 10.22 12.0205 10.22H13.5103C13.6475 10.22 13.7586 10.3312 13.7586 10.4683V11.9582C13.7586 12.0953 13.6475 12.2065 13.5103 12.2065H12.0205C11.8834 12.2065 11.7722 12.0953 11.7722 11.9582V10.4683ZM9.28912 7.98528C9.28912 7.84815 9.4003 7.73697 9.53743 7.73697H11.0273C11.1644 7.73697 11.2756 7.84815 11.2756 7.98528V9.47511C11.2756 9.61224 11.1644 9.72342 11.0273 9.72342H9.53743C9.4003 9.72342 9.28912 9.61224 9.28912 9.47511V7.98528ZM9.28912 10.4683C9.28912 10.3312 9.4003 10.22 9.53743 10.22H11.0273C11.1644 10.22 11.2756 10.3312 11.2756 10.4683V11.9582C11.2756 12.0953 11.1644 12.2065 11.0273 12.2065H9.53743C9.4003 12.2065 9.28912 12.0953 9.28912 11.9582V10.4683Z" fill="#E80061"/>
<path d="M4.57109 10.2201C4.15971 10.2201 3.82617 10.5536 3.82617 10.965V12.7031H5.316V10.965C5.316 10.5536 4.98259 10.2201 4.57109 10.2201V10.2201ZM5.0677 11.7099H4.57109V11.2133H5.0677V11.7099Z" fill="#E80061"/>
<path d="M12.2686 8.23364H13.2618V9.22689H12.2686V8.23364Z" fill="#E80061"/>
<path d="M5.8125 5.99878H6.80573V6.992H5.8125V5.99878Z" fill="#E80061"/>
<path d="M12.2686 10.7167H13.2618V11.7099H12.2686V10.7167Z" fill="#E80061"/>
<path d="M9.78564 8.23364H10.7789V9.22689H9.78564V8.23364Z" fill="#E80061"/>
<path d="M1.34326 12.7031H3.32971V10.9649C3.32971 10.2793 3.88561 9.72341 4.57124 9.72341C5.25699 9.72341 5.81277 10.2793 5.81277 10.9649V12.7031H7.79922V5.25391H1.34326V12.7031ZM5.31616 5.75052C5.31616 5.61339 5.42734 5.50221 5.56447 5.50221H7.0543C7.19143 5.50221 7.30261 5.61339 7.30261 5.75052V7.24035C7.30261 7.37748 7.19143 7.48866 7.0543 7.48866H5.56447C5.42734 7.48866 5.31616 7.37748 5.31616 7.24035V5.75052ZM5.31616 8.23358C5.31616 8.09645 5.42734 7.98527 5.56447 7.98527H7.0543C7.19143 7.98527 7.30261 8.09645 7.30261 8.23358V9.72341C7.30261 9.86054 7.19143 9.97172 7.0543 9.97172H5.56447C5.42734 9.97172 5.31616 9.86054 5.31616 9.72341V8.23358ZM1.83987 5.75052C1.83987 5.61339 1.95105 5.50221 2.08818 5.50221H3.57802C3.71514 5.50221 3.82632 5.61339 3.82632 5.75052V7.24035C3.82632 7.37748 3.71514 7.48866 3.57802 7.48866H2.08818C1.95105 7.48866 1.83987 7.37748 1.83987 7.24035V5.75052ZM1.83987 8.23358C1.83987 8.09645 1.95105 7.98527 2.08818 7.98527H3.57802C3.71514 7.98527 3.82632 8.09645 3.82632 8.23358V9.72341C3.82632 9.86054 3.71514 9.97172 3.57802 9.97172H2.08818C1.95105 9.97172 1.83987 9.86054 1.83987 9.72341V8.23358Z" fill="#E80061"/>
<path d="M2.33643 8.48193H3.32965V9.47518H2.33643V8.48193Z" fill="#E80061"/>
<path d="M2.33643 5.99878H3.32965V6.992H2.33643V5.99878Z" fill="#E80061"/>
<path d="M5.8125 8.48193H6.80573V9.47518H5.8125V8.48193Z" fill="#E80061"/>
<path d="M7.39739 3.26758H1.74492L1 4.75742H8.14231L7.39739 3.26758Z" fill="#E80061"/>
<path d="M11.198 4.29931C10.9222 4.43729 10.6181 4.50906 10.3097 4.50906H9.53711V6.74382H10.0337V5.50229H10.3097C10.6181 5.50229 10.9222 5.43051 11.198 5.29254L11.7719 5.00568V4.01245L11.198 4.29931Z" fill="#E80061"/>
<path d="M14.426 4.29931C14.1502 4.43729 13.8461 4.50906 13.5377 4.50906H12.7651V6.74382H13.2617V5.50229H13.5377C13.8461 5.50229 14.1502 5.43051 14.426 5.29254L14.9999 5.00568V4.01245L14.426 4.29931Z" fill="#E80061"/>
</g>
<defs>
<clipPath id="clip0">
<rect width="14" height="14" fill="white" transform="translate(1 1)"/>
</clipPath>
</defs>
</svg>
